<?xml version="1.0" encoding="UTF-8" standalone="no"?>
<!-- Created with Inkscape (http://www.inkscape.org/) -->

<svg
   width="311.67899mm"
   height="259.29199mm"
   viewBox="0 0 311.67899 259.29199"
   version="1.1"
   id="svg1"
   xml:space="preserve"
   inkscape:version="1.4.3 (0d15f75, 2025-12-25)"
   sodipodi:docname="cart_icon.svg"
   xmlns:inkscape="http://www.inkscape.org/namespaces/inkscape"
   xmlns:sodipodi="http://sodipodi.sourceforge.net/DTD/sodipodi-0.dtd"
   xmlns="http://www.w3.org/2000/svg"
   xmlns:svg="http://www.w3.org/2000/svg"><sodipodi:namedview
     id="namedview1"
     pagecolor="#ffffff"
     bordercolor="#000000"
     borderopacity="0.25"
     inkscape:showpageshadow="2"
     inkscape:pageopacity="0.0"
     inkscape:pagecheckerboard="0"
     inkscape:deskcolor="#d1d1d1"
     inkscape:document-units="mm"
     inkscape:zoom="0.27338883"
     inkscape:cx="815.68804"
     inkscape:cy="855.92378"
     inkscape:window-width="1920"
     inkscape:window-height="1112"
     inkscape:window-x="-8"
     inkscape:window-y="-8"
     inkscape:window-maximized="1"
     inkscape:current-layer="layer1" /><defs
     id="defs1" /><g
     inkscape:label="Layer 1"
     inkscape:groupmode="layer"
     id="layer1"><path
       style="fill:#ffffff;stroke-width:1.4417;fill-opacity:1"
       d="m 62.917703,258.77781 c -6.086849,-1.71293 -10.674066,-6.06327 -12.700409,-12.04459 -1.187116,-3.5041 -0.941661,-9.44633 0.524681,-12.70206 1.43477,-3.18562 3.313198,-5.58231 5.73732,-7.32025 1.157703,-0.83 2.113164,-1.63783 2.123227,-1.79518 0.01009,-0.15734 -4.624846,-0.28609 -10.299812,-0.28609 -11.375161,0 -11.505503,-0.0232 -13.609806,-2.41984 -1.839613,-2.0952 -2.522881,-4.35466 -2.311748,-7.64457 0.220091,-3.42948 1.462882,-5.83387 3.822624,-7.39551 l 1.572195,-1.04045 79.260355,-0.098 79.26037,-0.098 0.37698,-1.42777 c 0.80623,-3.05348 7.28,-29.07817 7.28,-29.26574 0,-0.10928 -37.7325,-0.19868 -83.84999,-0.19868 -72.854435,0 -84.098867,-0.074 -85.747791,-0.56357 -2.101877,-0.62421 -4.636431,-2.59055 -5.831461,-4.52415 C 27.61265,168.478 27.90883,169.68622 15.324808,116.10683 9.9538766,93.238847 5.1508146,72.812142 4.6513356,70.714161 c -0.499477,-2.097981 -1.724134,-7.247569 -2.72146,-11.44353 -2.109614,-8.8756 -2.333825,-12.039756 -1.027121,-14.495139 1.014295,-1.905923 2.483455,-3.297343 4.696382,-4.447871 l 1.71653,-0.892444 115.1982234,-0.190724 115.1982,-0.190726 4.05377,-16.140913 c 2.22957,-8.877502 4.36111,-16.8224898 4.73676,-17.6555284 0.86771,-1.9242331 3.01226,-3.8689803 5.16921,-4.68759462 1.51996,-0.57686209 4.12914,-0.62735059 27.42771,-0.53073763 28.57699,0.11849371 26.96155,-0.02707522 29.72945,2.67906505 2.0912,2.0445434 2.86831,3.943391 2.85,6.96398 -0.0193,3.1762676 -0.85941,5.0806236 -3.15737,7.1566986 -2.81568,2.5438 -3.084,2.570303 -26.02136,2.570303 h -20.4922 l -6.89287,27.750562 c -10.43588,42.01473 -23.23409,93.580278 -31.92865,128.644358 -11.46166,46.22343 -10.55131,42.83041 -12.12912,45.2068 -2.15237,3.24167 -3.20941,3.61892 -10.14016,3.61892 -3.15533,0 -5.73318,0.12875 -5.72857,0.28609 0.004,0.15735 0.78254,0.80106 1.72873,1.43045 6.56031,4.36384 9.3161,13.83246 6.2729,21.55311 -2.86984,7.28087 -10.27275,11.914 -18.10817,11.33308 -5.49729,-0.40757 -10.02228,-2.81401 -13.22772,-7.03462 -2.35105,-3.09566 -3.43739,-6.02036 -3.6643,-9.86522 -0.34993,-5.92941 1.42553,-10.44233 5.69136,-14.46651 1.44211,-1.3604 2.79045,-2.47347 2.99631,-2.47347 0.20588,0 0.37431,-0.17165 0.37431,-0.38145 0,-0.25238 -17.03815,-0.38146 -50.35153,-0.38146 -33.313404,0 -50.351545,0.12903 -50.351545,0.38146 0,0.2098 0.16186,0.38145 0.359705,0.38145 0.67058,0 4.908096,4.20682 6.062268,6.01838 2.780976,4.3649 3.549968,10.4864 1.922657,15.30514 -1.738653,5.14843 -5.973804,9.61584 -10.891113,11.48839 -2.873937,1.09442 -8.245902,1.37228 -11.084849,0.57335 z m 8.67057,-103.47689 c -0.001,-0.15735 -0.864893,-7.92464 -1.919687,-17.26065 -1.054809,-9.33602 -2.022496,-17.96158 -2.150447,-19.16791 L 67.28552,116.679 H 52.081823 c -12.928129,0 -15.203702,0.0816 -15.203702,0.54539 0,0.47649 1.007792,4.86406 4.737445,20.62515 0.49646,2.09799 1.63868,6.94717 2.538269,10.776 l 1.635617,6.96147 h 12.900351 c 7.095205,0 12.899508,-0.12875 12.89847,-0.28609 z M 117.74575,136.13301 V 116.679 h -15.44877 c -10.074854,0 -15.448764,0.13307 -15.448764,0.38257 0,0.21041 0.94408,8.74554 2.09797,18.96696 1.15389,10.22142 2.09798,18.80357 2.09798,19.07144 0,0.38582 2.77493,0.48704 13.350794,0.48704 h 13.35079 z m 44.24831,19.09285 c 0,-0.19862 1.02993,-8.70458 2.28871,-18.90213 1.25879,-10.19754 2.2887,-18.78932 2.2887,-19.09286 0,-0.47197 -2.12625,-0.55187 -14.68586,-0.55187 h -14.68586 v 19.45401 19.454 h 12.39715 c 7.54572,0 12.39716,-0.14129 12.39716,-0.36115 z m 46.91848,0.19214 c 0,-0.093 2.14566,-8.76438 4.76813,-19.26984 2.62249,-10.50544 4.76815,-19.1837 4.76815,-19.28499 0,-0.10135 -7.25641,-0.18417 -16.12535,-0.18417 h -16.12535 l -2.20882,18.2143 c -1.21487,10.01786 -2.30274,18.77215 -2.4175,19.454 l -0.20864,1.23971 h 13.7747 c 7.57607,0 13.77468,-0.0761 13.77468,-0.16901 z M 64.89686,95.41311 C 64.767684,94.416575 63.769087,85.619359 62.677817,75.86375 L 60.693671,58.126277 42.205869,58.026958 c -10.168294,-0.05463 -18.67405,-0.02797 -18.901681,0.05924 -0.266711,0.102174 1.217387,7.088643 4.173866,19.648679 l 4.587738,19.490122 h 16.532991 16.532989 z m 52.59401,1.525814 c 0.0944,-0.157348 0.079,-8.997477 -0.034,-19.644733 l -0.20559,-19.35864 H 98.807386 80.363512 v 0.931323 c 0,0.512228 0.944085,9.268825 2.097983,19.459105 1.153882,10.190276 2.097983,18.611316 2.097983,18.713403 0,0.308063 32.746252,0.208168 32.931362,-0.100487 z m 53.98199,-18.88183 c 1.29517,-10.542353 2.3529,-19.38248 2.35052,-19.644728 -0.003,-0.374837 -3.96101,-0.476815 -18.50472,-0.476815 H 136.81829 V 77.58028 97.225001 h 16.14988 16.14987 z m 56.65534,-0.09262 c 2.64867,-10.593289 4.81575,-19.434962 4.81575,-19.648159 0,-0.258821 -6.55807,-0.354802 -19.73515,-0.288837 l -19.73515,0.0988 -2.14223,17.356021 c -1.17823,9.545812 -2.26563,18.343019 -2.41645,19.549365 l -0.27423,2.193338 h 17.33585 17.33585 z"
       id="path1" /></g></svg>
