<?xml version="1.0" encoding="UTF-8" standalone="no"?>
<!-- Created with Inkscape (http://www.inkscape.org/) -->

<svg
   width="262.646mm"
   height="259.966mm"
   viewBox="0 0 262.64599 259.96601"
   version="1.1"
   id="svg1"
   xml:space="preserve"
   inkscape:version="1.4.3 (0d15f75, 2025-12-25)"
   sodipodi:docname="catalogue_icon.svg"
   xmlns:inkscape="http://www.inkscape.org/namespaces/inkscape"
   xmlns:sodipodi="http://sodipodi.sourceforge.net/DTD/sodipodi-0.dtd"
   xmlns="http://www.w3.org/2000/svg"
   xmlns:svg="http://www.w3.org/2000/svg"><sodipodi:namedview
     id="namedview1"
     pagecolor="#ffffff"
     bordercolor="#000000"
     borderopacity="0.25"
     inkscape:showpageshadow="2"
     inkscape:pageopacity="0.0"
     inkscape:pagecheckerboard="0"
     inkscape:deskcolor="#d1d1d1"
     inkscape:document-units="mm"
     inkscape:zoom="0.27338883"
     inkscape:cx="365.77939"
     inkscape:cy="797.39907"
     inkscape:window-width="1920"
     inkscape:window-height="1112"
     inkscape:window-x="-8"
     inkscape:window-y="-8"
     inkscape:window-maximized="1"
     inkscape:current-layer="layer1" /><defs
     id="defs1" /><g
     inkscape:label="Layer 1"
     inkscape:groupmode="layer"
     id="layer1"><path
       style="fill:currentColor;fill-opacity:1;stroke-width:1"
       d="m 135.31866,259.73933 c -3.65534,-0.5095 -8.55627,-1.64549 -12.32157,-2.85604 -3.36238,-1.081 -13.34267,-5.53916 -69.00091,-30.82247 C 42.972466,221.05319 32.54841,216.3675 30.831599,215.64818 17.696548,210.14474 7.4738791,198.97626 2.9287998,185.16381 0.7589435,178.56963 -0.26974329,170.55415 0.06073204,162.81594 0.23544573,158.72495 0.83185936,152.66369 1.088182,152.37412 c 0.111755,-0.12624 113.959418,45.93552 114.283078,46.23793 0.143,0.13361 0.40708,2.07765 0.58684,4.32012 1.34574,16.78785 7.75302,29.17851 17.55339,33.9455 4.77287,2.32156 6.38549,2.65717 12.65017,2.63269 4.93738,-0.0192 5.68557,-0.10158 8.37869,-0.92187 11.24949,-3.42638 18.91477,-12.04189 27.94995,-31.41483 4.96347,-10.6425 6.80167,-15.30419 21.11896,-53.55784 16.29544,-43.53895 27.16592,-73.556907 34.23673,-94.541975 l 1.90786,-5.662252 -1.20622,-0.318686 C 229.89141,50.805896 110.92014,20.544974 110.60934,20.551184 110.3491,20.556184 99.735755,47.217526 83.403707,88.892816 68.675299,126.47601 56.449277,157.22686 56.234771,157.22802 55.804466,157.23002 38.080677,150.78858 37.831299,150.5392 37.745729,150.4536 50.578554,117.61139 66.348771,77.556513 97.93713,-2.675006 95.576204,2.8162297 99.292696,0.93293525 102.87754,-0.88363404 97.05562,-2.109003 180.56884,18.039644 c 41.6039,10.037477 76.20292,18.538698 76.88673,18.89161 3.15139,1.626453 5.15493,5.013554 5.17426,8.747445 0.0133,2.573074 0.86994,-0.03341 -11.98623,36.471905 -7.96785,22.624856 -15.95496,44.926006 -22.02614,61.500156 -3.66909,10.01651 -6.61624,17.98057 -17.1235,46.27268 -2.56623,6.90989 -7.61432,19.09262 -10.32997,24.92966 -13.05564,28.06192 -26.42274,40.52276 -47.48453,44.26515 -4.25839,0.75667 -14.82394,1.11405 -18.3608,0.62108 z m 23.32888,-76.17617 c -10.64762,-3.62048 -44.23218,-15.74091 -45.44975,-16.40247 -5.53897,-3.00961 -6.58897,-11.09415 -2.02518,-15.59303 2.12265,-2.09246 3.81025,-2.72047 7.22442,-2.68843 l 2.95718,0.0277 21.85027,7.79236 c 12.01766,4.2858 22.47542,8.09229 23.23947,8.45887 1.89727,0.91028 4.18942,3.54344 4.87108,5.59574 0.72531,2.1837 0.52368,5.82426 -0.42475,7.66935 -2.26937,4.41481 -7.68655,6.68911 -12.24274,5.13987 z M 83.502224,157.29218 c -4.758451,-1.69073 -7.474649,-5.42891 -7.446211,-10.24787 0.01925,-3.26145 0.914246,-5.32811 3.273893,-7.55977 2.540351,-2.40254 4.24971,-3.09278 7.695042,-3.10721 2.513924,-0.01 3.023795,0.0985 4.993486,1.06821 10.242906,5.04258 6.96438,19.84561 -4.507533,20.35218 -1.617946,0.0714 -2.80673,-0.0785 -4.008677,-0.50554 z m 91.081236,-15.94766 c -6.31007,-2.14864 -44.05874,-15.74102 -44.84482,-16.1475 -0.49832,-0.2577 -1.58917,-1.22836 -2.42411,-2.15701 -4.43826,-4.93643 -2.80755,-12.64477 3.30801,-15.63685 1.44261,-0.7058 2.3158,-0.90245 4.00948,-0.90295 1.99777,-5.8e-4 3.89324,0.61825 24.50838,8.00148 12.28873,4.40115 22.83367,8.20695 23.43319,8.45732 1.80939,0.75559 3.84064,2.89491 4.81932,5.0757 0.7987,1.77973 0.8883,2.31372 0.76001,4.52967 -0.114,1.96891 -0.35103,2.88986 -1.09632,4.25921 -2.39913,4.40799 -7.43959,6.23493 -12.47314,4.52093 z m -74.09381,-25.76758 c -2.356343,-0.90776 -3.417352,-1.58539 -4.692668,-2.99701 -2.212438,-2.4489 -2.698552,-3.75794 -2.697806,-7.26474 5.96e-4,-2.74625 0.105558,-3.31894 0.873338,-4.76435 2.154654,-4.056345 6.660346,-6.43056 11.262806,-5.934784 2.73961,0.295103 5.08365,1.509656 7.03571,3.645507 2.67375,2.925507 3.47598,6.780877 2.20586,10.601097 -0.77826,2.34082 -3.52681,5.30952 -5.85156,6.32025 -2.3093,1.00402 -6.07845,1.18656 -8.13568,0.39403 z m 92.98691,-16.870927 c -18.06575,-5.439202 -45.19097,-14.010625 -46.2124,-14.602881 -1.71889,-0.996668 -2.95675,-2.454774 -3.98736,-4.696817 -0.7049,-1.5335 -0.78968,-2.101192 -0.66241,-4.435766 0.16178,-2.967613 0.62534,-4.122692 2.47713,-6.172411 1.73789,-1.92363 4.03599,-2.985719 6.82022,-3.152029 2.23516,-0.1335 2.93979,0.06135 24.9845,6.909319 12.47647,3.875686 23.28026,7.350649 24.00844,7.722139 3.11868,1.591035 5.18438,5.086662 5.18438,8.773126 0,3.916792 -1.98932,7.125351 -5.54813,8.94854 -1.85971,0.95273 -5.15307,1.282221 -7.06437,0.70678 z M 115.46681,74.947885 c -2.30441,-0.97044 -4.51111,-3.00878 -5.71953,-5.283152 -0.75745,-1.425606 -0.8733,-2.033982 -0.87592,-4.600064 -0.002,-2.572167 0.11586,-3.199331 0.91033,-4.817091 1.09748,-2.234816 2.95697,-3.991527 5.45443,-5.152941 1.52852,-0.710816 2.32769,-0.859963 4.63949,-0.86585 2.39788,-0.0062 3.0561,0.122075 4.65384,0.906757 6.72787,3.303922 8.47249,11.513193 3.62104,17.038694 -0.5627,0.640875 -1.9524,1.661548 -3.08823,2.268172 -1.79043,0.956221 -2.43674,1.117688 -4.85807,1.213646 -2.39247,0.09488 -3.07169,-0.0062 -4.73738,-0.708171 z"
       id="path2" /></g></svg>
