<?xml version="1.0" encoding="UTF-8" standalone="no"?>
<!-- Created with Inkscape (http://www.inkscape.org/) -->

<svg
   width="277.96201mm"
   height="258.608mm"
   viewBox="0 0 277.962 258.60801"
   version="1.1"
   id="svg1"
   xml:space="preserve"
   inkscape:version="1.4.3 (0d15f75, 2025-12-25)"
   sodipodi:docname="home_icon.svg"
   xmlns:inkscape="http://www.inkscape.org/namespaces/inkscape"
   xmlns:sodipodi="http://sodipodi.sourceforge.net/DTD/sodipodi-0.dtd"
   xmlns="http://www.w3.org/2000/svg"
   xmlns:svg="http://www.w3.org/2000/svg"><sodipodi:namedview
     id="namedview1"
     pagecolor="#ffffff"
     bordercolor="#000000"
     borderopacity="0.25"
     inkscape:showpageshadow="2"
     inkscape:pageopacity="0.0"
     inkscape:pagecheckerboard="0"
     inkscape:deskcolor="#d1d1d1"
     inkscape:document-units="mm"
     inkscape:zoom="0.1933151"
     inkscape:cx="1432.8938"
     inkscape:cy="1432.8938"
     inkscape:window-width="1920"
     inkscape:window-height="1112"
     inkscape:window-x="-8"
     inkscape:window-y="-8"
     inkscape:window-maximized="1"
     inkscape:current-layer="layer1" /><defs
     id="defs1" /><g
     inkscape:label="Layer 1"
     inkscape:groupmode="layer"
     id="layer1"><path
       style="fill:currentColor;fill-opacity:1;stroke-width:1"
       d="m 60.615766,257.94799 c -11.19726,-2.80131 -19.44332,-11.42567 -21.58397,-22.57418 -0.40209,-2.09401 -0.48844,-9.00391 -0.48217,-38.58565 0.008,-35.45122 0.019,-36.06016 0.71289,-37.59912 0.55267,-1.22583 10.97312,-11.79282 48.16313,-48.84038 45.205954,-45.032807 47.548624,-47.307316 49.370734,-47.933817 1.69932,-0.584274 2.13303,-0.608672 3.8851,-0.218504 l 1.97223,0.439175 47.10231,46.965616 c 25.90626,25.83108 47.53211,47.49847 48.05744,48.14975 0.52534,0.65128 1.11672,1.78415 1.31419,2.51748 0.23948,0.88938 0.32418,13.5769 0.25439,38.10433 l -0.10475,36.77099 -0.78307,2.54492 c -1.50322,4.8854 -3.88858,8.89972 -7.40954,12.46955 -2.7719,2.81036 -5.99305,4.97327 -9.4947,6.37539 -5.16997,2.07016 -5.0401,2.06174 -31.92095,2.06835 l -24.594,0.006 v -35.45696 -35.45708 h -26.07136 -26.07138 v 35.45708 35.45708 l -24.941634,-0.0256 c -22.54891,-0.0231 -25.17505,-0.084 -27.37494,-0.63435 z M 10.695486,143.09047 c -5.2914604,-1.91866 -8.7927904,-5.77495 -10.2206004,-11.25666 -0.96621,-3.70954 -0.44973,-7.70784 1.4698,-11.3782 C 2.6525956,119.10199 15.409926,106.12757 56.770046,64.697313 86.416566,35.000501 111.8808,9.7282345 113.3572,8.5367205 c 4.7918,-3.867164 11.61917,-6.887049 18.13136,-8.01987601 3.90586,-0.679449 11.06168,-0.690748 14.88789,-0.02352 3.61895,0.63110001 8.52155,2.20700301 11.45614,3.68250401 5.14211,2.585441 7.08055,4.297576 24.53654,21.6720345 l 17.1202,17.040251 v -9.777956 c 0,-8.620232 0.0779,-10.028516 0.65858,-11.894002 2.85522,-9.173814 13.22007,-13.6286545 22.07169,-9.486481 2.61557,1.223981 5.70655,4.138536 6.91055,6.516101 2.04349,4.03532 1.99246,3.244249 1.99246,30.889497 v 25.391209 l 22.02749,22.082513 c 24.3744,24.435275 23.69606,23.632875 24.61874,29.121325 0.99203,5.90101 -1.91195,12.46903 -6.92542,15.66343 -2.98591,1.9025 -5.71465,2.59742 -9.50285,2.42004 -2.82371,-0.13224 -3.71799,-0.33122 -5.90951,-1.31498 -2.57112,-1.15413 -2.81858,-1.39499 -57.15839,-55.636156 -45.08603,-45.004191 -54.81788,-54.55693 -55.96657,-54.936522 -1.98009,-0.654356 -5.28734,-0.559049 -6.95238,0.200346 -0.98353,0.448583 -17.31166,16.522479 -55.792754,54.92408 -54.22687,54.114852 -54.41064,54.293652 -56.99398,55.453002 -2.26768,1.01768 -3.02826,1.17912 -6.08332,1.29136 -3.01486,0.11076 -3.80521,0.0146 -5.78818,-0.70445 z"
       id="path1" /></g></svg>
