<?xml version="1.0" encoding="UTF-8" standalone="no"?>
<!-- Created with Inkscape (http://www.inkscape.org/) -->

<svg
   width="241.38699mm"
   height="259.29199mm"
   viewBox="0 0 241.387 259.29199"
   version="1.1"
   id="svg1"
   xml:space="preserve"
   inkscape:version="1.4.3 (0d15f75, 2025-12-25)"
   sodipodi:docname="profile_icon.svg"
   xmlns:inkscape="http://www.inkscape.org/namespaces/inkscape"
   xmlns:sodipodi="http://sodipodi.sourceforge.net/DTD/sodipodi-0.dtd"
   xmlns="http://www.w3.org/2000/svg"
   xmlns:svg="http://www.w3.org/2000/svg"><sodipodi:namedview
     id="namedview1"
     pagecolor="#ffffff"
     bordercolor="#000000"
     borderopacity="0.25"
     inkscape:showpageshadow="2"
     inkscape:pageopacity="0.0"
     inkscape:pagecheckerboard="0"
     inkscape:deskcolor="#d1d1d1"
     inkscape:document-units="mm"
     inkscape:zoom="0.38663019"
     inkscape:cx="243.12638"
     inkscape:cy="625.92112"
     inkscape:window-width="1920"
     inkscape:window-height="1112"
     inkscape:window-x="-8"
     inkscape:window-y="-8"
     inkscape:window-maximized="1"
     inkscape:current-layer="layer1" /><defs
     id="defs1" /><g
     inkscape:label="Layer 1"
     inkscape:groupmode="layer"
     id="layer1"><path
       style="fill:#23133e;fill-opacity:1;stroke:#24133e;stroke-width:11.478;stroke-dasharray:none;stroke-opacity:1"
       d="m 19.148592,252.2878 c -5.10806,-1.74805 -9.6703595,-5.90523 -11.9633075,-10.90103 -1.312127,-2.8588 -1.3281464,-2.96979 -1.2996949,-8.99995 0.021648,-4.58 0.2580123,-7.24957 0.9461379,-10.68457 3.7505795,-18.7223 10.6388565,-34.98743 21.1470675,-49.93398 10.901584,-15.50609 24.633588,-27.71561 40.815255,-36.29003 2.962163,-1.56962 5.463472,-2.92771 5.558444,-3.01801 0.09494,-0.0904 -1.296076,-1.78213 -3.09123,-3.75963 C 62.996319,119.596 57.872936,109.84253 54.774052,97.313671 53.133789,90.682024 52.610883,86.213122 52.565887,78.441896 52.49785,66.683721 54.636541,57.051674 59.707845,46.27736 68.720107,27.130272 84.860535,13.424497 104.45469,8.2802408 c 11.83735,-3.1077857 25.38333,-2.5473741 37.3726,1.5461457 17.24629,5.8884415 32.22665,19.9402275 40.14021,37.6520865 12.06896,27.01234 7.41127,59.589607 -11.54108,80.721677 -2.03338,2.26724 -3.6249,4.19308 -3.53672,4.27964 0.0881,0.0865 2.27754,1.28104 4.86522,2.65436 11.93941,6.33646 20.55509,12.94604 30.10731,23.097 7.19972,7.65102 10.44706,11.79978 15.19497,19.41289 8.00454,12.83496 13.9961,28.09724 16.90636,43.06559 1.6366,8.41741 1.99068,14.80963 0.99929,18.03936 -1.83194,5.96792 -5.95714,10.51298 -12.06793,13.29622 -1.79778,0.81881 -4.18635,0.84059 -101.66632,0.92634 -94.494453,0.0831 -99.945678,0.0466 -102.080008,-0.68375 z M 218.51002,238.11238 c 1.82418,-0.82854 3.14731,-2.48573 3.42121,-4.28501 0.24795,-1.62864 -0.91637,-8.82288 -2.54076,-15.69918 -4.37663,-18.52707 -14.39321,-36.66976 -27.91955,-50.56966 -11.39285,-11.70746 -24.96318,-20.43334 -39.32884,-25.2889 -3.64175,-1.23089 -5.47364,-2.8839 -6.14608,-5.54592 -0.99301,-3.93095 0.15964,-6.11184 5.24862,-9.93066 21.40853,-16.06522 29.38063,-44.080769 19.82561,-69.671224 -6.79603,-18.201277 -21.6404,-31.279268 -40.2273,-35.440545 -4.22874,-0.946738 -15.15693,-1.086963 -19.3198,-0.2479 -20.463124,4.124535 -36.234471,18.561641 -42.668048,39.058385 -2.210964,7.043929 -2.778403,11.516687 -2.526189,19.912609 0.306179,10.192418 1.742272,16.29764 5.860959,24.916665 4.055444,8.48665 10.379328,16.10704 17.945632,21.62483 4.848285,3.53565 6.085371,5.87066 5.124822,9.67316 -0.663262,2.62563 -2.682333,4.46413 -6.219726,5.66344 -15.727294,5.33215 -29.844925,14.80763 -42.067249,28.23474 -8.298282,9.11627 -14.546353,18.78916 -19.326956,29.92083 -4.24174,9.8769 -7.789123,22.93839 -8.355247,30.76412 -0.235283,3.25222 -0.200445,3.43714 0.913511,4.84833 2.230447,2.82556 -5.417377,2.62409 100.321151,2.64277 81.00208,0.0148 96.88107,-0.0798 97.98423,-0.58088 z"
       id="path1" /></g></svg>
